<svg width="20" height="19" viewBox="0 0 20 19" fill="none" xmlns="http://www.w3.org/2000/svg">
<path d="M2 18.5C1.45 18.5 0.979167 18.3042 0.5875 17.9125C0.195833 17.5208 0 17.05 0 16.5V2.5C0 1.95 0.195833 1.47917 0.5875 1.0875C0.979167 0.695833 1.45 0.5 2 0.5H18C18.55 0.5 19.0208 0.695833 19.4125 1.0875C19.8042 1.47917 20 1.95 20 2.5V16.5C20 17.05 19.8042 17.5208 19.4125 17.9125C19.0208 18.3042 18.55 18.5 18 18.5H2ZM2 16.5H18V2.5H2V16.5ZM3 14.5H8V12.5H3V14.5ZM12.55 12.5L17.5 7.55L16.075 6.125L12.55 9.675L11.125 8.25L9.725 9.675L12.55 12.5ZM3 10.5H8V8.5H3V10.5ZM3 6.5H8V4.5H3V6.5Z" fill="#7D7D7D"/>
</svg>
